<?xml version="1.0" encoding="UTF-8" standalone="no"?>
<!-- Created with Inkscape (http://www.inkscape.org/) -->

<svg
   width="12mm"
   height="12mm"
   viewBox="0 0 12 12"
   version="1.1"
   id="svg1"
   inkscape:version="1.3 (0e150ed6c4, 2023-07-21)"
   sodipodi:docname="icon.svg"
   xmlns:inkscape="http://www.inkscape.org/namespaces/inkscape"
   xmlns:sodipodi="http://sodipodi.sourceforge.net/DTD/sodipodi-0.dtd"
   xmlns="http://www.w3.org/2000/svg"
   xmlns:svg="http://www.w3.org/2000/svg">
  <sodipodi:namedview
     id="namedview1"
     pagecolor="#505050"
     bordercolor="#eeeeee"
     borderopacity="1"
     inkscape:showpageshadow="0"
     inkscape:pageopacity="0"
     inkscape:pagecheckerboard="0"
     inkscape:deskcolor="#d1d1d1"
     inkscape:document-units="mm"
     inkscape:zoom="16.976094"
     inkscape:cx="28.923025"
     inkscape:cy="26.596224"
     inkscape:window-width="2560"
     inkscape:window-height="1369"
     inkscape:window-x="5112"
     inkscape:window-y="-8"
     inkscape:window-maximized="1"
     inkscape:current-layer="layer1" />
  <defs
     id="defs1" />
  <g
     inkscape:label="Layer 1"
     inkscape:groupmode="layer"
     id="layer1"
     transform="translate(-6.611427,-5.6550267)">
    <g
       id="g3"
       transform="translate(0.10539176,1.6904294)">
      <path
         style="color:#000000;-inkscape-font-specification:'Cascadia Mono';fill:#425d3b;fill-opacity:1;stroke:#ffffff;stroke-width:2;stroke-linecap:square;stroke-linejoin:round;stroke-miterlimit:1;stroke-dasharray:none;stroke-dashoffset:3.02363;stroke-opacity:1;paint-order:stroke fill markers"
         d="m 9.523504,6.6550267 -1.91211,6.6191413 h 0.498047 1.15625 L 9.650457,11.84448 h 1.507812 l 0.384765,1.429688 h 1.09961 0.554687 1.021485 v -1.81836 h 0.52539 c 0.796265,0 1.461632,-0.195881 1.927735,-0.634765 0.468018,-0.440887 0.689453,-1.0891102 0.689453,-1.8496103 0,-0.713763 -0.229559,-1.327694 -0.701172,-1.734375 -0.468549,-0.406255 -1.12517,-0.582031 -1.916016,-0.582031 h -0.52539 -0.832032 -0.74414 V 11.354246 L 11.285222,6.6550267 Z m 4.695312,1.535156 h 0.52539 c 0.397881,0 0.643584,0.08707 0.783203,0.2050781 0.14003,0.118358 0.214844,0.271921 0.214844,0.5761719 0,0.364929 -0.08911,0.576329 -0.234375,0.71875 -0.143802,0.138052 -0.374326,0.230469 -0.763672,0.230469 h -0.52539 z m -3.814453,0.8535161 0.339843,1.2656252 h -0.679688 z"
         id="path2"
         sodipodi:nodetypes="cccccccccccscscscccccccssscscccccc" />
      <path
         style="color:#000000;-inkscape-font-specification:'Cascadia Mono';fill:#3b3e5d;fill-opacity:1;stroke:none;stroke-width:2;stroke-linecap:square;stroke-dasharray:none;stroke-dashoffset:3.02363;stroke-opacity:1;paint-order:stroke fill markers"
         d="m 13.197331,13.274168 h 1.021485 v -1.81836 h 0.52539 c 0.796265,0 1.461632,-0.195881 1.927735,-0.634765 0.468018,-0.440887 0.689453,-1.0891102 0.689453,-1.8496103 0,-0.713763 -0.229559,-1.327694 -0.701172,-1.734375 -0.468549,-0.406255 -1.12517,-0.582031 -1.916016,-0.582031 h -0.52539 -0.832032 -0.74414 v 4.6992193 z m 1.021485,-5.0839853 h 0.52539 c 0.397881,0 0.643584,0.08707 0.783203,0.2050781 0.14003,0.118358 0.214844,0.271921 0.214844,0.5761719 0,0.364929 -0.08911,0.576329 -0.234375,0.71875 -0.143802,0.138052 -0.374326,0.230469 -0.763672,0.230469 h -0.52539 z"
         id="path3"
         sodipodi:nodetypes="cccscscsccccccssscscc" />
    </g>
  </g>
</svg>
